<svg xmlns="http://www.w3.org/2000/svg" viewBox="0 0 102.89 45.54" fill="currentColor" role="img" aria-label="Shake star mark">
  <!-- Shake mark — oval ring + 8-point starburst. Uses currentColor: inline the SVG and set `color` to theme it. -->
  <path d="M51.38,0c10.87.09,21.58,1.18,31.9,4.86,5.28,1.89,10.38,4.17,14.59,8,4.06,3.69,6.13,8.15,4.41,13.67-1,3.23-3.19,5.59-6,7.54-7.8,5.41-16.56,8.24-25.76,9.89-9,1.62-18.09,1.85-27.2,1.29-7.9-.48-15.64-1.81-23.14-4.42-4.74-1.65-9.22-3.78-13.39-6.62-3.2-2.17-5.58-4.86-6.45-8.62-1.19-5.14.85-9.26,4.59-12.66,4.25-3.86,9.37-6.18,14.69-8.09C29.89,1.18,40.56.08,51.38,0ZM51.43,2.17c-9.92.08-19.69,1.12-29.09,4.55-4.97,1.81-9.74,4.01-13.66,7.72-5.32,5.04-5.29,11.95.08,16.97,3.01,2.82,6.7,4.52,10.4,6.13,8.03,3.47,16.5,5.03,25.2,5.54,10.73.63,21.34.03,31.76-2.81,5.9-1.61,11.56-3.9,16.51-7.48,7.33-5.29,7.61-13.08.89-19.08-3.86-3.45-8.54-5.48-13.37-7.18-9.29-3.26-18.94-4.27-28.72-4.35Z"/>
  <polygon points="51.44 4.49 53.16 19.8 67.27 13.63 54.87 22.77 67.27 31.91 53.16 25.74 51.44 41.05 49.73 25.74 35.61 31.91 48.02 22.77 35.61 13.63 49.73 19.8 51.44 4.49"/>
</svg>
